<svg xmlns="http://www.w3.org/2000/svg" xmlns:xlink="http://www.w3.org/1999/xlink" viewBox="0 0 154.326 111.441">
  <defs>
    <style>
      .cls-1, .cls-2 {
        fill: none;
      }

      .cls-1 {
        clip-rule: evenodd;
      }

      .cls-3 {
        clip-path: url(#clip-path);
      }

      .cls-4 {
        clip-path: url(#clip-path-2);
      }

      .cls-5 {
        fill: #221f1f;
      }

      .cls-6 {
        clip-path: url(#clip-path-3);
      }

      .cls-7 {
        clip-path: url(#clip-path-5);
      }

      .cls-8 {
        clip-path: url(#clip-path-7);
      }

      .cls-9 {
        fill: #fdfdfd;
      }

      .cls-10 {
        clip-path: url(#clip-path-9);
      }

      .cls-11 {
        clip-path: url(#clip-path-11);
      }

      .cls-12 {
        clip-path: url(#clip-path-13);
      }

      .cls-13 {
        clip-path: url(#clip-path-15);
      }

      .cls-14 {
        clip-path: url(#clip-path-17);
      }
    </style>
    <clipPath id="clip-path">
      <path id="Path_4068" data-name="Path 4068" class="cls-1" d="M156.684-187.871H2.968v-1.711H156.684Z" transform="translate(-2.968 189.582)"/>
    </clipPath>
    <clipPath id="clip-path-2">
      <path id="Path_4067" data-name="Path 4067" class="cls-2" d="M-51-692H118.732V-812H-51Z" transform="translate(51 812)"/>
    </clipPath>
    <clipPath id="clip-path-3">
      <path id="Path_4071" data-name="Path 4071" class="cls-1" d="M156.684-10.437H2.968v-1.711H156.684Z" transform="translate(-2.968 12.148)"/>
    </clipPath>
    <clipPath id="clip-path-5">
      <path id="Path_4074" data-name="Path 4074" class="cls-1" d="M221.1-782.117c29.436,0,53.442,17.386,53.442,38.707s-24.006,38.7-53.442,38.7-53.442-17.389-53.442-38.7,24.007-38.707,53.442-38.707" transform="translate(-167.656 782.117)"/>
    </clipPath>
    <clipPath id="clip-path-7">
      <path id="Path_4077" data-name="Path 4077" class="cls-1" d="M236-760.588c28.068,0,50.961,16.008,50.961,35.639S264.071-689.314,236-689.314s-50.965-16.005-50.965-35.635S207.93-760.588,236-760.588" transform="translate(-185.038 760.588)"/>
    </clipPath>
    <clipPath id="clip-path-9">
      <path id="Path_4080" data-name="Path 4080" class="cls-1" d="M253.926-740.9c26.429,0,47.989,14.749,47.989,32.834s-21.56,32.829-47.989,32.829-47.986-14.749-47.986-32.829S227.5-740.9,253.926-740.9" transform="translate(-205.94 740.903)"/>
    </clipPath>
    <clipPath id="clip-path-11">
      <path id="Path_4083" data-name="Path 4083" class="cls-1" d="M371.917-582H362.2v-16.037a12.242,12.242,0,0,1,3.457-9.019,12.065,12.065,0,0,1,8.368-3.361,9.638,9.638,0,0,1,8.694,4.893c2.534-3.162,5.661-4.893,9.122-4.893a12.657,12.657,0,0,1,6,1.73,14.552,14.552,0,0,1,4.473,4.8,12.573,12.573,0,0,1,1.769,6.048V-582h-9.707v-16.082a3.316,3.316,0,0,0-1.015-2.5,5.648,5.648,0,0,0-2.447-.958c-1.943,0-3.126,1.728-3.126,4.319V-582h-9.711v-15.7a5.045,5.045,0,0,0-.931-2.689,3.111,3.111,0,0,0-2.192-1.15,3.5,3.5,0,0,0-2.112.958,4.78,4.78,0,0,0-.925,3.072Z" transform="translate(-362.202 610.414)"/>
    </clipPath>
    <clipPath id="clip-path-13">
      <path id="Path_4086" data-name="Path 4086" class="cls-1" d="M694.837-605.247v7.034c-5-3.593-10.4-4.09-11.577-1.431-1.329,3,14.065-.029,11.857,12.064-1.348,6.035-11.819,9.55-19.8,4.308v-7.389c6.784,3.351,9.9,2.98,10.313,1.338.832-3.28-11.153.62-10.873-10.463,1.257-10.223,14.825-11.188,20.08-5.46" transform="translate(-674.752 608.744)"/>
    </clipPath>
    <clipPath id="clip-path-15">
      <path id="Path_4089" data-name="Path 4089" class="cls-1" d="M278.388-609.8v28.33h-8.953V-609.8Z" transform="translate(-269.435 609.803)"/>
    </clipPath>
    <clipPath id="clip-path-17">
      <path id="Path_4092" data-name="Path 4092" class="cls-1" d="M5.013-137.717V-150.33H4.535a30.507,30.507,0,0,0-3.7.242c.016-.184.023-.374.023-.575,0-.237-.007-.449-.023-.635h9.9c-.011.057-.022.123-.029.2s-.011.158-.021.236a.833.833,0,0,1-.028.2,1.944,1.944,0,0,1,.049.284c.008.087.018.183.029.29A30.539,30.539,0,0,0,6.7-150.33v12.613c-.208-.027-.366-.046-.485-.048s-.239-.017-.378-.035c-.119.018-.222.028-.311.035S5.268-137.743,5.013-137.717Zm5.48-.042v-9.455a2.912,2.912,0,0,1,.667.085c.461-.055.748-.085.867-.085v1.981a4.709,4.709,0,0,1,1.044-1.408,2.1,2.1,0,0,1,1.46-.669,2.627,2.627,0,0,1,.6.061l-.251,1.654a1.49,1.49,0,0,0-.9-.291,1.628,1.628,0,0,0-1.464.749,3.258,3.258,0,0,0-.486,1.835v5.542a2.542,2.542,0,0,0-.787-.115A2.331,2.331,0,0,0,10.493-137.758Zm6.166-3.351v-6.1a3.143,3.143,0,0,0,.352.032,2.129,2.129,0,0,1,.358.053,4.117,4.117,0,0,1,.437-.053,3.77,3.77,0,0,0,.388-.032v5.568a4.125,4.125,0,0,0,.542,2.2,1.968,1.968,0,0,0,1.814.879,1.887,1.887,0,0,0,1.836-.942,4.533,4.533,0,0,0,.5-2.175v-5.532a4.451,4.451,0,0,1,.711.085,6.864,6.864,0,0,1,.823-.085v9.455c-.23-.024-.388-.043-.473-.048l-.315-.028c-.114.012-.209.022-.288.028s-.23.024-.46.048v-1.694a3.6,3.6,0,0,1-1.215,1.359,3.721,3.721,0,0,1-1.8.5,2.515,2.515,0,0,1-2.574-1.136A5.083,5.083,0,0,1,16.659-141.109Zm10.309-3.4a2.535,2.535,0,0,1,.906-2.034,3.254,3.254,0,0,1,2.155-.768,4.234,4.234,0,0,1,2.205.5,8.515,8.515,0,0,0-.443,1.379H31.6a1.848,1.848,0,0,0-1.684-1.262,1.894,1.894,0,0,0-1.092.322,1.251,1.251,0,0,0-.556.939,1.557,1.557,0,0,1-.043.4,1.421,1.421,0,0,0,.539,1.136,5.608,5.608,0,0,0,1.578.761c.709.236,1.075.358,1.1.372a2.148,2.148,0,0,1,1.321,2.052,2.857,2.857,0,0,1-.94,2.18,3.87,3.87,0,0,1-2.589.94,5.149,5.149,0,0,1-1.2-.182,4.322,4.322,0,0,1-1.191-.469c.041-.146.1-.361.193-.634a4.893,4.893,0,0,0,.194-.806h.131a3.4,3.4,0,0,0,1.056,1.071,2.241,2.241,0,0,0,1.206.385,1.8,1.8,0,0,0,1.323-.549,1.739,1.739,0,0,0,.5-1.207,1.476,1.476,0,0,0-.459-1.193,3.549,3.549,0,0,0-1.362-.622,10.887,10.887,0,0,1-1.523-.524,1.97,1.97,0,0,1-.822-.728A2.477,2.477,0,0,1,26.967-144.506Zm7.891,3.85v-5.82H33.67a1.324,1.324,0,0,0,.037-.336,1.5,1.5,0,0,0-.037-.4h1.188v-1.952l1.533-.611v2.563h2.034a1.466,1.466,0,0,1-.046.4.922.922,0,0,1,.045.336H36.392v5.4a1.232,1.232,0,0,1-.044.357A5.049,5.049,0,0,0,36.662-139a1.214,1.214,0,0,0,1.128.711c.359-.051.647-.1.879-.156v.451a4.54,4.54,0,0,1-1.7.359,2.344,2.344,0,0,1-1.053-.2,1.657,1.657,0,0,1-.869-1.06A6.869,6.869,0,0,1,34.858-140.656Zm4.56-1.8a5.084,5.084,0,0,1,1.323-3.69,4.086,4.086,0,0,1,3.1-1.164,3.312,3.312,0,0,1,3.143,1.591,5.774,5.774,0,0,1,.748,3.226q-1.844-.041-6.629-.042a3.964,3.964,0,0,0,.769,2.892,3.1,3.1,0,0,0,2.6,1.195,4.228,4.228,0,0,0,2.8-1.364l-.035,1a5.258,5.258,0,0,1-3.261,1.209,4.132,4.132,0,0,1-3.387-1.42A5.239,5.239,0,0,1,39.419-142.455Zm6.817-.809q0-3.433-2.394-3.473a2.173,2.173,0,0,0-1.96,1.045,5.258,5.258,0,0,0-.778,2.428Zm2.834.888a5.228,5.228,0,0,1,1.24-3.666,3.692,3.692,0,0,1,2.883-1.267,3.39,3.39,0,0,1,3.027,1.875V-152.6a5.562,5.562,0,0,1,.821.08,3.615,3.615,0,0,1,.708-.08v14.839c-.176-.024-.325-.043-.439-.048s-.243-.016-.383-.028c-.12.012-.227.022-.324.028s-.23.024-.384.048v-1.929A4.94,4.94,0,0,1,54.8-138.12a3.312,3.312,0,0,1-1.878.524,3.328,3.328,0,0,1-2.946-1.384A5.71,5.71,0,0,1,49.069-142.376Zm1.688.138a4.7,4.7,0,0,0,.768,2.993,2.475,2.475,0,0,0,1.852.917,2.225,2.225,0,0,0,2.056-1.178,5.89,5.89,0,0,0,.785-3.221,7.268,7.268,0,0,0-.109-1.255,4.3,4.3,0,0,0-.4-1.2,2.494,2.494,0,0,0-.809-.96,2.165,2.165,0,0,0-1.27-.357Q50.758-146.578,50.757-142.238Zm15.267,4.479v-8.718h-1.3v-.737h1.3a8.355,8.355,0,0,1,1.593-4.376A2.828,2.828,0,0,1,70.11-152.6c-.04.277-.078.671-.118,1.185a1.238,1.238,0,0,1,.041.394l-.119.082c-.092-.058-.2-.109-.316-.17a1.131,1.131,0,0,0-.344-.115,1.911,1.911,0,0,0-.392-.035c-1.047,0-1.593.7-1.648,2.092a7.239,7.239,0,0,0,.131.97c.074.4.138.725.174.982h1.954s-.026.135-.075.4a1.283,1.283,0,0,1,.074.336H67.556v8.718c-.176-.024-.324-.043-.437-.048s-.241-.016-.384-.028c-.115.012-.218.022-.307.028S66.2-137.782,66.025-137.758Zm4.348-4.479a5.118,5.118,0,0,1,.568-2.645,4.512,4.512,0,0,1,1.731-1.813,4.713,4.713,0,0,1,2.411-.652,4.607,4.607,0,0,1,2.4.624,4.205,4.205,0,0,1,1.633,1.732,5.307,5.307,0,0,1,.571,2.459,5.626,5.626,0,0,1-.51,2.293,4.427,4.427,0,0,1-1.6,1.89,4.62,4.62,0,0,1-2.682.753h-.014a5.042,5.042,0,0,1-2.34-.6,3.942,3.942,0,0,1-1.55-1.6A5.558,5.558,0,0,1,70.373-142.238Zm1.689-.039a5.948,5.948,0,0,0,.639,2.735,2.442,2.442,0,0,0,2.273,1.311,2.564,2.564,0,0,0,2.181-1.253,5.161,5.161,0,0,0,.864-3.008,6.2,6.2,0,0,0-.683-2.9,2.259,2.259,0,0,0-2.094-1.346,2.59,2.59,0,0,0-2.387,1.265A5.974,5.974,0,0,0,72.061-142.277Zm9.751,4.519v-9.455a2.883,2.883,0,0,1,.67.085c.463-.055.746-.085.859-.085v1.981a4.916,4.916,0,0,1,1.046-1.408,2.115,2.115,0,0,1,1.465-.669,2.67,2.67,0,0,1,.6.061l-.255,1.654a1.485,1.485,0,0,0-.9-.291,1.63,1.63,0,0,0-1.466.749,3.31,3.31,0,0,0-.49,1.835v5.542a2.487,2.487,0,0,0-.787-.115A2.337,2.337,0,0,0,81.812-137.758ZM93.189-147.9a3.366,3.366,0,0,1,1.332-2.8,4.838,4.838,0,0,1,2.88-.888,4.565,4.565,0,0,1,1.6.285,3.448,3.448,0,0,1,1.185.684c-.071.167-.256.707-.533,1.617h-.174a2.9,2.9,0,0,0-.829-1.2,2.24,2.24,0,0,0-1.57-.541,2.355,2.355,0,0,0-1.712.662,2.148,2.148,0,0,0-.682,1.606,2.654,2.654,0,0,0,1.783,2.51l1.993.846a3.705,3.705,0,0,1,1.667,1.2,3.381,3.381,0,0,1,.573,2.07,4.149,4.149,0,0,1-.587,2.1,4.276,4.276,0,0,1-1.684,1.628,5.084,5.084,0,0,1-2.558.593,4.831,4.831,0,0,1-1.694-.347,4.229,4.229,0,0,1-1.332-.817,7.491,7.491,0,0,0,.363-1.78h.19a4.318,4.318,0,0,0,1.435,1.631,4.03,4.03,0,0,0,1.54.461,2.372,2.372,0,0,0,1.963-.786,2.858,2.858,0,0,0,.832-2.033,2.7,2.7,0,0,0-1.877-2.585l-1.9-.807A3.2,3.2,0,0,1,93.189-147.9Zm9.672,6.79v-6.1a3.3,3.3,0,0,0,.354.032,2.19,2.19,0,0,1,.359.053,3.965,3.965,0,0,1,.438-.053,3.65,3.65,0,0,0,.385-.032v5.568a4.1,4.1,0,0,0,.545,2.2,1.968,1.968,0,0,0,1.813.879,1.888,1.888,0,0,0,1.836-.942,4.518,4.518,0,0,0,.5-2.175v-5.532a4.423,4.423,0,0,1,.712.085,6.886,6.886,0,0,1,.823-.085v9.455c-.232-.024-.39-.043-.472-.048l-.316-.028c-.113.012-.209.022-.288.028s-.229.024-.46.048v-1.694a3.589,3.589,0,0,1-1.214,1.359,3.717,3.717,0,0,1-1.794.5,2.513,2.513,0,0,1-2.575-1.136A5.051,5.051,0,0,1,102.861-141.109Zm10.151-1.382a4.769,4.769,0,0,1,1.313-3.487,5.006,5.006,0,0,1,3.707-1.331,5.86,5.86,0,0,1,2.992.768l-.446,1.309h-.15a2.7,2.7,0,0,0-2.435-1.425,2.824,2.824,0,0,0-2.43,1.192,4.758,4.758,0,0,0-.864,2.85,4.878,4.878,0,0,0,.961,3.1,3.089,3.089,0,0,0,2.564,1.222,2.711,2.711,0,0,0,1.34-.3,6.64,6.64,0,0,0,1.269-.978l.111.043-.07.922a5.05,5.05,0,0,1-2.954,1.012,5.377,5.377,0,0,1-2.6-.612,4.2,4.2,0,0,1-1.71-1.729A5.348,5.348,0,0,1,113.012-142.491Zm9.585,0a4.757,4.757,0,0,1,1.309-3.487,4.982,4.982,0,0,1,3.709-1.331,5.838,5.838,0,0,1,2.986.768l-.437,1.309h-.153a2.706,2.706,0,0,0-2.433-1.425,2.829,2.829,0,0,0-2.436,1.192,4.774,4.774,0,0,0-.863,2.85,4.886,4.886,0,0,0,.957,3.1,3.1,3.1,0,0,0,2.567,1.222,2.719,2.719,0,0,0,1.344-.3,6.564,6.564,0,0,0,1.26-.978l.118.043-.075.922a5.027,5.027,0,0,1-2.95,1.012,5.356,5.356,0,0,1-2.6-.612,4.207,4.207,0,0,1-1.717-1.729A5.356,5.356,0,0,1,122.6-142.491Zm9.423.037a5.111,5.111,0,0,1,1.319-3.69,4.1,4.1,0,0,1,3.1-1.164,3.308,3.308,0,0,1,3.144,1.591,5.706,5.706,0,0,1,.744,3.226q-1.83-.041-6.625-.042a3.98,3.98,0,0,0,.764,2.892,3.11,3.11,0,0,0,2.607,1.195,4.227,4.227,0,0,0,2.795-1.364l-.033,1a5.249,5.249,0,0,1-3.258,1.209,4.139,4.139,0,0,1-3.391-1.42A5.241,5.241,0,0,1,132.02-142.455Zm6.819-.809c0-2.288-.795-3.446-2.4-3.473a2.174,2.174,0,0,0-1.961,1.045,5.269,5.269,0,0,0-.776,2.428Zm3.063-1.243a2.54,2.54,0,0,1,.912-2.034,3.24,3.24,0,0,1,2.155-.768,4.247,4.247,0,0,1,2.208.5,7.422,7.422,0,0,0-.445,1.379h-.191a1.849,1.849,0,0,0-1.688-1.262,1.884,1.884,0,0,0-1.087.322,1.268,1.268,0,0,0-.555.939,1.665,1.665,0,0,1-.043.4,1.434,1.434,0,0,0,.537,1.136,5.561,5.561,0,0,0,1.582.761c.707.236,1.074.358,1.1.372a2.15,2.15,0,0,1,1.322,2.052,2.875,2.875,0,0,1-.937,2.18,3.877,3.877,0,0,1-2.585.94,5.152,5.152,0,0,1-1.208-.182,4.156,4.156,0,0,1-1.185-.469c.035-.146.1-.361.187-.634a5.019,5.019,0,0,0,.193-.806h.131a3.382,3.382,0,0,0,1.058,1.071,2.218,2.218,0,0,0,1.2.385,1.8,1.8,0,0,0,1.325-.549,1.717,1.717,0,0,0,.5-1.207,1.477,1.477,0,0,0-.46-1.193,3.542,3.542,0,0,0-1.362-.622,10.9,10.9,0,0,1-1.523-.524,2.009,2.009,0,0,1-.825-.728A2.517,2.517,0,0,1,141.9-144.506Zm7.456,0a2.524,2.524,0,0,1,.909-2.034,3.238,3.238,0,0,1,2.153-.768,4.234,4.234,0,0,1,2.2.5,8.575,8.575,0,0,0-.444,1.379h-.19a1.844,1.844,0,0,0-1.685-1.262,1.906,1.906,0,0,0-1.092.322,1.287,1.287,0,0,0-.557.939,1.653,1.653,0,0,1-.037.4,1.412,1.412,0,0,0,.538,1.136,5.586,5.586,0,0,0,1.576.761c.71.236,1.076.358,1.1.372a2.151,2.151,0,0,1,1.325,2.052,2.858,2.858,0,0,1-.94,2.18,3.876,3.876,0,0,1-2.587.94,5.164,5.164,0,0,1-1.208-.182,4.324,4.324,0,0,1-1.188-.469c.043-.146.106-.361.194-.634a5.043,5.043,0,0,0,.192-.806h.135a3.411,3.411,0,0,0,1.049,1.071,2.255,2.255,0,0,0,1.211.385,1.806,1.806,0,0,0,1.323-.549,1.739,1.739,0,0,0,.494-1.207,1.453,1.453,0,0,0-.462-1.193,3.486,3.486,0,0,0-1.356-.622,10.76,10.76,0,0,1-1.519-.524,1.976,1.976,0,0,1-.829-.728A2.549,2.549,0,0,1,149.358-144.506Z" transform="translate(-0.836 152.619)"/>
    </clipPath>
  </defs>
  <g id="Group_4803" data-name="Group 4803" transform="translate(-0.836 782.117)">
    <g id="Group_4786" data-name="Group 4786" class="cls-3" transform="translate(1.139 -697.673)">
      <g id="Group_4785" data-name="Group 4785" class="cls-4" transform="translate(-7.691 -88.702)">
        <path id="Path_4066" data-name="Path 4066" class="cls-5" d="M-2.032-194.582H153.109v3.136H-2.032Z" transform="translate(9.011 282.572)"/>
      </g>
    </g>
    <g id="Group_4788" data-name="Group 4788" class="cls-6" transform="translate(1.139 -672.387)">
      <g id="Group_4787" data-name="Group 4787" class="cls-4" transform="translate(-7.691 -113.989)">
        <path id="Path_4069" data-name="Path 4069" class="cls-5" d="M-2.032-17.148H153.109v3.136H-2.032Z" transform="translate(9.011 130.424)"/>
      </g>
    </g>
    <g id="Group_4790" data-name="Group 4790" class="cls-7" transform="translate(24.609 -782.117)">
      <g id="Group_4789" data-name="Group 4789" class="cls-4" transform="translate(-31.161 -4.259)">
        <path id="Path_4072" data-name="Path 4072" class="cls-5" d="M162.656-787.117H270.965v78.837H162.656Z" transform="translate(-132.207 790.663)"/>
      </g>
    </g>
    <g id="Group_4792" data-name="Group 4792" class="cls-8" transform="translate(27.087 -779.049)">
      <g id="Group_4791" data-name="Group 4791" class="cls-4" transform="translate(-33.638 -7.327)">
        <path id="Path_4075" data-name="Path 4075" class="cls-9" d="M180.038-765.588H283.389v72.7H180.038Z" transform="translate(-147.113 772.202)"/>
      </g>
    </g>
    <g id="Group_4794" data-name="Group 4794" class="cls-10" transform="translate(30.065 -776.243)">
      <g id="Group_4793" data-name="Group 4793" class="cls-4" transform="translate(-36.617 -10.132)">
        <path id="Path_4078" data-name="Path 4078" class="cls-5" d="M200.94-745.9h97.4v67.088h-97.4Z" transform="translate(-165.035 755.322)"/>
      </g>
    </g>
    <g id="Group_4796" data-name="Group 4796" class="cls-11" transform="translate(52.335 -757.647)">
      <g id="Group_4795" data-name="Group 4795" class="cls-4" transform="translate(-58.886 -28.728)">
        <path id="Path_4081" data-name="Path 4081" class="cls-9" d="M357.2-615.414h43.306v29.842H357.2Z" transform="translate(-299.028 643.43)"/>
      </g>
    </g>
    <g id="Group_4798" data-name="Group 4798" class="cls-12" transform="translate(96.877 -757.409)">
      <g id="Group_4797" data-name="Group 4797" class="cls-4" transform="translate(-103.429 -28.967)">
        <path id="Path_4084" data-name="Path 4084" class="cls-9" d="M669.752-613.744H691.76v29.452H669.752Z" transform="translate(-567.036 641.998)"/>
      </g>
    </g>
    <g id="Group_4800" data-name="Group 4800" class="cls-13" transform="translate(39.114 -757.56)">
      <g id="Group_4799" data-name="Group 4799" class="cls-4" transform="translate(-45.666 -28.816)">
        <path id="Path_4087" data-name="Path 4087" class="cls-9" d="M264.435-614.8h10.378v29.755H264.435Z" transform="translate(-219.482 642.906)"/>
      </g>
    </g>
    <g id="Group_4802" data-name="Group 4802" class="cls-14" transform="translate(0.836 -692.406)">
      <g id="Group_4801" data-name="Group 4801" class="cls-4" transform="translate(-7.387 -93.97)">
        <path id="Path_4090" data-name="Path 4090" class="cls-5" d="M-4.165-157.619H151.587v16.527H-4.165Z" transform="translate(10.839 250.876)"/>
      </g>
    </g>
  </g>
</svg>
